<svg width="20" height="20" viewBox="0 0 20 20" fill="none" xmlns="http://www.w3.org/2000/svg">
<path id="dark" d="M9.38939 -0.00050354C8.65178 0.686805 8.06017 1.51564 7.64984 2.43655C7.23951 3.35747 7.01887 4.35159 7.00109 5.35963C6.9833 6.36767 7.16873 7.36896 7.54632 8.30378C7.92391 9.23859 8.48591 10.0878 9.19882 10.8007C9.91172 11.5136 10.7609 12.0756 11.6957 12.4532C12.6305 12.8308 13.6318 13.0162 14.6399 12.9984C15.6479 12.9806 16.642 12.76 17.5629 12.3497C18.4839 11.9393 19.3127 11.3477 20 10.6101C19.6817 15.8503 15.3313 20.0005 10.011 20.0005C4.48148 20.0005 0 15.519 0 9.99049C0 4.67017 4.15015 0.319817 9.38939 -0.00050354Z" fill="#212322"/>
</svg>
