<svg width="20" height="20" viewBox="0 0 20 20" fill="none" xmlns="http://www.w3.org/2000/svg">
<path id="Vector" d="M10 15.4545C8.55336 15.4545 7.16598 14.8799 6.14305 13.8569C5.12013 12.834 4.54545 11.4466 4.54545 10C4.54545 8.55336 5.12013 7.16598 6.14305 6.14305C7.16598 5.12013 8.55336 4.54545 10 4.54545C11.4466 4.54545 12.834 5.12013 13.8569 6.14305C14.8799 7.16598 15.4545 8.55336 15.4545 10C15.4545 11.4466 14.8799 12.834 13.8569 13.8569C12.834 14.8799 11.4466 15.4545 10 15.4545ZM10 13.6364C10.9644 13.6364 11.8893 13.2532 12.5713 12.5713C13.2532 11.8893 13.6364 10.9644 13.6364 10C13.6364 9.03558 13.2532 8.11065 12.5713 7.4287C11.8893 6.74675 10.9644 6.36364 10 6.36364C9.03558 6.36364 8.11065 6.74675 7.4287 7.4287C6.74675 8.11065 6.36364 9.03558 6.36364 10C6.36364 10.9644 6.74675 11.8893 7.4287 12.5713C8.11065 13.2532 9.03558 13.6364 10 13.6364ZM9.09091 0H10.9091V2.72727H9.09091V0ZM9.09091 17.2727H10.9091V20H9.09091V17.2727ZM2.28636 3.57182L3.57182 2.28636L5.5 4.21455L4.21455 5.5L2.28636 3.57182ZM14.5 15.7855L15.7855 14.5L17.7136 16.4282L16.4282 17.7136L14.5 15.7855ZM16.4282 2.28545L17.7136 3.57182L15.7855 5.5L14.5 4.21455L16.4282 2.28636V2.28545ZM4.21455 14.5L5.5 15.7855L3.57182 17.7136L2.28636 16.4282L4.21455 14.5ZM20 9.09091V10.9091H17.2727V9.09091H20ZM2.72727 9.09091V10.9091H0V9.09091H2.72727Z" fill="white"/>
</svg>
