<?xml version="1.0" standalone="no"?>
<!DOCTYPE svg PUBLIC "-//W3C//DTD SVG 20010904//EN"
 "http://www.w3.org/TR/2001/REC-SVG-20010904/DTD/svg10.dtd">
<svg version="1.0" xmlns="http://www.w3.org/2000/svg"
 width="400.000000pt" height="400.000000pt" viewBox="0 0 400.000000 400.000000"
 preserveAspectRatio="xMidYMid meet">
<metadata>
Created by potrace 1.14, written by Peter Selinger 2001-2017
</metadata>
<g transform="translate(0.000000,400.000000) scale(0.100000,-0.100000)"
fill="#000000" stroke="none">
<path d="M1810 3744 c-502 -62 -943 -321 -1233 -725 -80 -112 -196 -339 -236
-464 -195 -607 -59 -1255 362 -1726 94 -105 125 -135 132 -127 3 3 49 63 103
135 l97 129 63 -29 c71 -33 153 -57 197 -57 83 0 157 47 194 123 11 23 81 283
156 577 75 294 138 543 141 553 5 16 -7 17 -155 17 l-161 0 0 190 0 190 215 0
c118 0 215 1 215 3 0 20 155 601 174 651 52 138 150 254 263 311 159 79 379
70 589 -25 35 -16 64 -27 64 -25 0 2 -38 27 -85 55 -173 104 -369 180 -571
221 -84 16 -153 22 -299 24 -104 2 -206 1 -225 -1z"/>
<path d="M3019 3205 c-56 -74 -103 -135 -106 -135 -2 0 -25 11 -51 24 -113 57
-232 72 -301 36 -43 -22 -88 -70 -106 -115 -14 -31 -125 -456 -125 -474 0 -7
51 -11 150 -11 l150 0 0 -190 0 -190 -207 -2 -207 -3 -88 -345 c-228 -891
-237 -924 -277 -1006 -46 -96 -144 -206 -220 -247 -64 -35 -189 -67 -260 -67
-76 0 -222 32 -301 65 -99 41 -100 40 -25 -10 88 -59 304 -164 410 -199 324
-105 683 -113 1020 -21 586 159 1061 640 1215 1229 47 182 55 247 55 456 0
205 -9 275 -52 445 -76 293 -223 552 -442 778 -53 55 -104 103 -113 108 -15 8
-34 -13 -119 -126z"/>
</g>
</svg>
